<?xml version="1.0" standalone="no"?>
<!DOCTYPE svg PUBLIC "-//W3C//DTD SVG 20010904//EN"
 "http://www.w3.org/TR/2001/REC-SVG-20010904/DTD/svg10.dtd">
<svg version="1.0" xmlns="http://www.w3.org/2000/svg"
 width="16.000000pt" height="16.000000pt" viewBox="0 0 16.000000 16.000000"
 preserveAspectRatio="xMidYMid meet">
<metadata>
Inkie's webshop
</metadata>
<g transform="translate(0.000000,16.000000) scale(0.000413,-0.000413)"
fill="#000000" stroke="none">
<path d="M3695 38419 c-82 -4 -167 -9 -187 -12 -20 -3 -65 -8 -100 -12 -115
-12 -504 -95 -540 -115 -10 -6 -27 -10 -37 -10 -11 0 -23 -4 -26 -10 -3 -5
-17 -10 -30 -10 -13 0 -27 -4 -30 -10 -3 -5 -15 -10 -26 -10 -10 0 -27 -4 -37
-9 -9 -5 -36 -15 -59 -22 -24 -7 -43 -16 -43 -21 0 -4 -9 -8 -20 -8 -11 0 -35
-9 -55 -20 -20 -11 -41 -20 -47 -20 -14 0 -254 -118 -290 -142 -14 -10 -50
-31 -80 -46 -77 -41 -100 -55 -122 -74 -11 -10 -26 -18 -33 -18 -7 0 -13 -4
-13 -8 0 -5 -12 -15 -27 -23 -15 -8 -35 -19 -43 -26 -52 -41 -111 -83 -116
-83 -3 0 -19 -13 -37 -30 -18 -16 -36 -30 -40 -30 -4 0 -26 -16 -47 -36 -22
-20 -50 -44 -62 -52 -36 -23 -336 -322 -370 -367 -16 -22 -45 -57 -64 -77 -19
-20 -34 -41 -34 -45 0 -4 -14 -22 -30 -40 -17 -18 -30 -34 -30 -37 0 -5 -42
-64 -83 -116 -7 -8 -18 -28 -26 -43 -8 -15 -18 -27 -23 -27 -4 0 -8 -6 -8 -13
0 -7 -8 -22 -18 -33 -19 -22 -34 -48 -66 -109 -12 -22 -23 -42 -26 -45 -17
-17 -170 -320 -170 -337 0 -7 -9 -28 -20 -48 -11 -20 -20 -42 -20 -50 0 -8 -9
-30 -20 -50 -11 -20 -20 -44 -20 -55 0 -10 -5 -22 -10 -25 -6 -3 -10 -17 -10
-30 0 -13 -5 -27 -10 -30 -6 -3 -10 -17 -10 -30 0 -13 -5 -27 -10 -30 -6 -3
-10 -15 -10 -26 0 -10 -4 -27 -10 -37 -22 -40 -93 -375 -123 -582 l-21 -145
-4 -15665 c-2 -11091 0 -15707 8 -15810 30 -409 102 -735 245 -1100 37 -95
100 -232 112 -244 4 -4 8 -11 9 -14 2 -15 18 -48 30 -62 7 -8 13 -19 15 -25 4
-22 14 -42 49 -100 20 -33 39 -65 41 -70 11 -28 206 -310 270 -390 94 -119
443 -471 542 -546 42 -33 77 -57 77 -54 0 9 73 -47 87 -66 13 -17 123 -94 135
-94 3 0 10 -3 14 -7 4 -5 14 -8 23 -8 9 0 38 -20 66 -45 27 -24 51 -42 53 -40
2 2 25 -11 51 -29 42 -30 70 -44 89 -46 4 -1 14 -7 22 -14 14 -12 40 -24 50
-23 3 0 23 -11 45 -25 43 -26 105 -51 105 -41 0 3 9 -2 20 -12 11 -10 20 -14
20 -10 0 4 8 1 18 -8 14 -13 60 -30 84 -32 3 0 10 -3 14 -7 4 -5 16 -8 27 -8
11 0 28 -6 36 -14 17 -14 157 -62 201 -69 14 -2 37 -9 51 -15 27 -11 139 -40
176 -45 12 -2 26 -6 29 -10 4 -4 20 -7 35 -7 15 0 39 -4 52 -9 13 -5 46 -10
73 -12 27 -1 54 -6 59 -10 6 -4 42 -8 80 -10 39 -1 75 -6 81 -10 18 -15 31768
-5 31834 9 30 7 88 16 127 21 40 4 79 14 88 21 8 7 41 16 72 20 123 17 186 31
238 55 29 14 60 25 68 25 15 0 152 45 182 60 11 5 47 19 80 30 32 11 69 30 81
41 12 11 42 25 66 30 23 6 60 24 82 41 21 17 57 35 80 40 22 5 61 25 85 44 24
19 48 34 53 34 28 0 109 49 164 101 39 37 72 59 87 59 42 0 149 95 479 427
332 333 408 419 408 460 0 15 23 48 59 87 52 55 101 136 101 164 0 5 15 29 34
53 19 24 39 63 44 85 5 23 23 59 40 80 17 22 35 59 41 82 5 24 19 54 30 66 11
12 30 49 41 81 11 33 25 69 30 80 15 30 60 167 60 182 0 8 11 39 25 68 24 53
38 115 55 239 5 32 13 62 20 66 6 4 15 42 20 86 6 43 15 108 22 144 11 52 13
3209 12 15945 -1 8734 -4 15914 -9 15955 -4 41 -10 80 -14 85 -4 6 -9 32 -10
59 -2 27 -7 60 -12 73 -5 13 -9 37 -9 52 0 15 -3 31 -7 35 -4 3 -8 17 -10 29
-3 26 -22 105 -30 127 -4 8 -7 21 -9 28 -1 8 -6 21 -10 30 -4 9 -9 28 -11 42
-7 44 -55 184 -69 201 -8 8 -14 22 -14 31 0 25 -32 112 -48 131 -8 9 -12 17
-7 17 4 0 1 7 -6 16 -7 9 -14 25 -16 36 -4 27 -33 89 -51 111 -8 9 -12 17 -8
17 3 0 -5 18 -19 40 -14 22 -23 40 -20 40 6 0 -53 98 -73 123 -8 9 -12 17 -7
17 4 0 -13 24 -39 54 -25 30 -46 61 -46 68 0 8 -3 18 -7 22 -5 4 -8 11 -8 14
0 12 -77 122 -94 135 -20 15 -71 82 -71 94 0 4 -11 21 -25 37 -14 16 -25 33
-25 38 0 19 -428 443 -530 525 -90 72 -373 270 -405 282 -5 2 -37 21 -70 41
-61 36 -174 94 -187 95 -3 0 -10 3 -14 8 -11 11 -174 87 -193 90 -9 2 -29 10
-46 19 -32 16 -299 107 -375 127 -25 7 -58 16 -75 21 -128 37 -416 82 -648
100 -151 12 -31143 11 -31382 -1z m6334 -10151 c133 -49 242 -139 313 -259 29
-48 165 -446 574 -1671 l536 -1608 8186 -2 8187 -3 58 -22 c151 -58 240 -125
315 -238 77 -114 97 -184 97 -335 l0 -125 -1209 -3625 c-817 -2452 -1220
-3646 -1244 -3690 -71 -130 -220 -245 -373 -287 -61 -17 -347 -18 -5646 -18
-3716 0 -5583 -3 -5583 -10 0 -5 177 -541 393 -1190 l394 -1180 4669 -5 c4387
-5 4674 -7 4753 -23 183 -38 339 -91 481 -162 877 -442 1236 -1496 810 -2380
-241 -501 -713 -865 -1266 -976 -137 -27 -419 -37 -560 -19 -427 53 -831 264
-1111 580 -417 470 -560 1100 -384 1702 11 37 22 72 26 78 4 7 -956 10 -3080
10 -2124 0 -3084 -3 -3080 -10 4 -6 15 -41 26 -78 241 -828 -127 -1694 -891
-2095 -170 -90 -404 -162 -604 -187 -141 -18 -423 -8 -560 19 -844 170 -1447
904 -1446 1759 1 644 344 1227 910 1552 l108 61 -2212 6637 -2213 6637 -1034
5 c-1146 6 -1062 1 -1201 71 -73 37 -183 140 -227 213 -65 109 -84 178 -85
306 -1 96 3 127 24 190 31 96 106 208 182 271 70 58 118 84 213 115 l70 23
1305 -2 1305 -2 74 -27z"/>
</g>
</svg>
